<svg width="557" height="378" viewBox="0 0 557 378" fill="none" xmlns="http://www.w3.org/2000/svg">
<rect x="0.708008" y="378" width="378" height="5.90909" transform="rotate(-90 0.708008 378)" fill="#00C3D0"/>
<rect x="42.6172" y="378" width="378" height="6.5" transform="rotate(-90 42.6172 378)" fill="#00C3D0"/>
<rect x="85.1172" y="378" width="378" height="7.22222" transform="rotate(-90 85.1172 378)" fill="#00C3D0"/>
<rect x="128.339" y="378" width="378" height="8.125" transform="rotate(-90 128.339 378)" fill="#00C3D0"/>
<rect x="172.464" y="378" width="378" height="9.28571" transform="rotate(-90 172.464 378)" fill="#00C3D0"/>
<rect x="217.75" y="378" width="378" height="10.8333" transform="rotate(-90 217.75 378)" fill="#00C3D0"/>
<rect x="264.583" y="378" width="378" height="13" transform="rotate(-90 264.583 378)" fill="#00C3D0"/>
<rect x="313.583" y="378" width="378" height="16.25" transform="rotate(-90 313.583 378)" fill="#00C3D0"/>
<rect x="365.833" y="378" width="378" height="21.6667" transform="rotate(-90 365.833 378)" fill="#00C3D0"/>
<rect x="423.5" y="378" width="378" height="32.5" transform="rotate(-90 423.5 378)" fill="#00C3D0"/>
<rect x="492" y="378" width="378" height="65" transform="rotate(-90 492 378)" fill="#00C3D0"/>
</svg>
