<svg width="24" height="24" viewBox="0 0 24 24" fill="none" xmlns="http://www.w3.org/2000/svg">
<path d="M5 5.00059C4.9999 4.64868 5.09265 4.30298 5.26888 3.99838C5.44512 3.69379 5.69861 3.44108 6.00375 3.26579C6.30889 3.09049 6.65488 2.99882 7.00679 3.00001C7.3587 3.00121 7.70406 3.09523 8.008 3.27259L20.005 10.2706C20.3078 10.4463 20.5591 10.6983 20.7339 11.0016C20.9088 11.3049 21.0009 11.6487 21.0012 11.9987C21.0015 12.3488 20.91 12.6928 20.7357 12.9963C20.5614 13.2999 20.3105 13.5524 20.008 13.7286L8.008 20.7286C7.70406 20.906 7.3587 21 7.00679 21.0012C6.65488 21.0024 6.30889 20.9107 6.00375 20.7354C5.69861 20.5601 5.44512 20.3074 5.26888 20.0028C5.09265 19.6982 4.9999 19.3525 5 19.0006V5.00059Z" fill="#00C3D0" stroke="#00C3D0" stroke-width="2" stroke-linecap="round" stroke-linejoin="round"/>
</svg>
